# xmcd
#
# Track frame offsets:
#	150
#	4383
#	22500
#	45510
#	52371
#	72810
#	87735
#	105129
#	125460
#
# Disc length: 1910 seconds
#
# Revision: 1
# Processed by: cddbd v1.5.2PL0 Copyright (c) Steve Scherf et al.
# Submitted via: audiograbber 1.83.01
#
DISCID=6c077409
DTITLE=Burn Down Rome - Devotion
DYEAR=2008
DGENRE=Metal
TTITLE0=Michael
TTITLE1=Debauchery
TTITLE2=Temperance
TTITLE3=XO
TTITLE4=Devotion
TTITLE5=Apathy
TTITLE6=Penitent
TTITLE7=11.11
TTITLE8=Daniel
EXTD=
EXTT0=
EXTT1=
EXTT2=
EXTT3=
EXTT4=
EXTT5=
EXTT6=
EXTT7=
EXTT8=
PLAYORDER=
